HIERARCHY
ROOT root
{
	OFFSET 0.000000 0.000000 0.000000
	CHANNELS 6 Xposition Yposition Zposition Zrotation Yrotation Xrotation
	JOINT lhip
	{
		OFFSET 0.058581 -0.082280 -0.017664
		CHANNELS 3 Zrotation Yrotation Xrotation
		JOINT lknee
		{
			OFFSET 0.043451 -0.386469 0.008037
			CHANNELS 3 Zrotation Yrotation Xrotation
			JOINT lankle
			{
				OFFSET -0.014790 -0.426874 -0.037428
				CHANNELS 3 Zrotation Yrotation Xrotation
				JOINT ltoe
				{
					OFFSET 0.041054 -0.060286 0.122042
					CHANNELS 3 Zrotation Yrotation Xrotation
					End Site
					{
						OFFSET 0.000000 0.000000 0.000000
					}
				}
			}
		}
	}
	JOINT rhip
	{
		OFFSET -0.060310 -0.090513 -0.013543
		CHANNELS 3 Zrotation Yrotation Xrotation
		JOINT rknee
		{
			OFFSET -0.043257 -0.383688 -0.004843
			CHANNELS 3 Zrotation Yrotation Xrotation
			JOINT rankle
			{
				OFFSET 0.019056 -0.420046 -0.034562
				CHANNELS 3 Zrotation Yrotation Xrotation
				JOINT rtoe
				{
					OFFSET -0.034840 -0.062106 0.130323
					CHANNELS 3 Zrotation Yrotation Xrotation
					End Site
					{
						OFFSET 0.000000 0.000000 0.000000
					}
				}
			}
		}
	}
	JOINT lowerback
	{
		OFFSET 0.004439 0.124404 -0.038385
		CHANNELS 3 Zrotation Yrotation Xrotation
		JOINT upperback
		{
			OFFSET 0.004488 0.137956 0.026820
			CHANNELS 3 Zrotation Yrotation Xrotation
			JOINT chest
			{
				OFFSET -0.002265 0.056032 0.002855
				CHANNELS 3 Zrotation Yrotation Xrotation
				JOINT lowerneck
				{
					OFFSET -0.013390 0.211636 -0.033468
					CHANNELS 3 Zrotation Yrotation Xrotation
					JOINT upperneck
					{
						OFFSET 0.010113 0.088937 0.050410
						CHANNELS 3 Zrotation Yrotation Xrotation
						End Site
						{
							OFFSET 0.000000 0.000000 0.000000
						}
					}
				}
				JOINT lclavicle
				{
					OFFSET 0.071702 0.114000 -0.018898
					CHANNELS 3 Zrotation Yrotation Xrotation
					JOINT lshoulder
					{
						OFFSET 0.122921 0.045205 -0.019046
						CHANNELS 3 Zrotation Yrotation Xrotation
						JOINT lelbow
						{
							OFFSET 0.255332 -0.015649 -0.022946
							CHANNELS 3 Zrotation Yrotation Xrotation
							JOINT lwrist
							{
								OFFSET 0.265709 0.012698 -0.007375
								CHANNELS 3 Zrotation Yrotation Xrotation
								End Site
								{
									OFFSET 0.000000 0.000000 0.000000
								}
							}
						}
					}
				}
				JOINT rclavicle
				{
					OFFSET -0.082954 0.112472 -0.023707
					CHANNELS 3 Zrotation Yrotation Xrotation
					JOINT rshoulder
					{
						OFFSET -0.113228 0.046853 -0.008472
						CHANNELS 3 Zrotation Yrotation Xrotation
						JOINT relbow
						{
							OFFSET -0.260127 -0.014369 -0.031269
							CHANNELS 3 Zrotation Yrotation Xrotation
							JOINT rwrist
							{
								OFFSET -0.269108 0.006794 -0.006027
								CHANNELS 3 Zrotation Yrotation Xrotation
								End Site
								{
									OFFSET 0.000000 0.000000 0.000000
								}
							}
						}
					}
				}
			}
		}
	}
}
MOTION
Frames: 12
Frame Time: 0.033333
1.213972 0.711931 1.007484 -93.197886 0.416221 88.967130 -0.481000 -1.048995 2.904550 0.350960 -9.445420 1.236790 3.500742 18.804562 -11.722840 0.000000 -0.000000 0.000000 1.609660 -0.209666 2.347157 -3.911098 6.081069 1.563923 2.300740 -14.915095 -9.832400 0.000000 -0.000000 0.000000 -1.230741 1.059052 3.963256 0.470298 -3.369038 4.911056 -0.512113 -0.027632 1.160368 5.165736 2.863632 -3.457679 3.380042 -0.754934 -5.961127 -4.843069 1.747565 1.475917 -57.203651 -7.773706 6.372763 10.258652 -7.091285 -7.291727 -19.347153 2.652839 3.621573 4.089924 2.804062 0.754579 59.600646 -2.553339 11.066331 -10.049556 21.504822 12.096704 11.362691 -2.716549 0.126691 
1.215510 0.712486 1.007498 -93.628290 0.463849 89.108092 -0.330010 -0.898250 2.441893 0.145576 -9.419957 1.671655 3.457829 19.165970 -11.843827 0.000000 -0.000000 0.000000 1.663463 -0.127276 1.783045 -3.791884 6.537874 1.993223 2.285495 -15.017135 -9.765361 0.000000 -0.000000 0.000000 -1.259752 1.149405 4.383156 0.418171 -3.209915 4.800199 -0.478158 -0.063784 1.699026 5.176743 2.687775 -3.879646 3.357408 -0.618497 -6.640591 -4.695438 2.204654 0.966381 -54.658046 -6.828093 5.778227 9.731232 -6.480068 -6.087409 -18.656005 1.560461 4.162564 3.659702 2.363811 0.138370 57.630995 -3.052299 10.890425 -8.798654 21.571712 13.732998 11.774439 -2.436420 0.212381 
1.217475 0.713056 1.007465 -93.982856 0.605765 89.374867 -0.009908 -0.856065 1.545357 -0.229953 -9.097839 2.576712 3.679148 19.147658 -11.905167 0.000000 -0.000000 0.000000 1.793658 0.026094 0.956537 -3.553280 6.899548 2.674282 2.223736 -15.077817 -9.907290 0.000000 -0.000000 0.000000 -1.092124 0.935072 5.491986 0.300329 -3.097581 3.841881 -0.513870 -0.175315 2.010543 5.014212 2.957410 -4.568084 3.180554 -0.498726 -6.815875 -4.012964 3.357193 0.749165 -52.682626 -5.964287 4.770505 8.990792 -7.532780 -7.326686 -21.873894 3.050807 3.659427 3.498471 1.791749 0.404031 55.227286 -2.688891 10.788065 -7.617161 21.894943 15.457294 15.032725 -3.619111 0.991396 
1.220062 0.713875 1.007079 -94.317120 0.787651 89.591036 0.405579 -0.911325 0.270744 -0.873292 -9.111064 4.320635 3.682637 19.638590 -12.795672 0.000000 -0.000000 0.000000 2.068429 0.319227 -0.072891 -3.324068 7.323914 3.770906 2.023352 -15.531620 -10.172108 0.000000 -0.000000 0.000000 -0.958608 0.781039 6.673173 0.220965 -3.181836 3.106740 -0.552341 -0.207797 2.520640 5.016978 3.052518 -5.246695 3.200223 0.068564 -6.988660 -3.781418 4.095908 0.508160 -50.321491 -4.709967 4.302067 7.641236 -8.137436 -6.708059 -22.161701 2.993981 3.157815 3.442418 1.457404 0.226152 52.658639 -2.390772 10.698946 -6.271783 21.865011 16.995211 15.329211 -3.909708 1.375322 
1.223267 0.714550 1.006168 -94.917132 0.964784 89.946602 0.906762 -0.795461 -1.461876 -1.719430 -8.723209 6.583112 3.677440 19.868327 -13.783496 0.000000 -0.000000 0.000000 2.224737 0.702031 -1.531978 -2.926638 7.663557 5.229955 1.841239 -15.640923 -10.534367 0.000000 -0.000000 0.000000 -0.760536 0.639793 7.387442 0.059464 -3.159578 3.304813 -0.740535 -0.179518 2.858146 5.215179 3.339951 -6.553518 3.099248 0.318893 -7.177818 -3.386230 4.510710 0.275105 -48.070820 -3.505909 3.674742 6.749571 -8.041854 -6.336950 -23.233075 2.744510 2.962476 3.096909 1.313891 -0.218369 50.532703 -2.385455 10.455194 -5.497433 22.179085 17.795052 15.923336 -3.877914 1.451914 
1.227470 0.715401 1.004647 -95.727263 1.115709 90.624660 1.551732 -0.747994 -4.090182 -2.994561 -8.126718 9.757891 3.859194 20.464893 -15.096911 0.000000 -0.000000 0.000000 2.240722 0.988757 -3.775070 -2.125372 8.516638 7.409532 1.491961 -15.746070 -11.204513 0.000000 -0.000000 0.000000 -0.545880 0.658492 9.181363 -0.361664 -2.997922 1.710804 -0.828105 -0.245886 3.330687 5.446804 3.541800 -8.088146 3.221231 0.796162 -7.132577 -3.590557 5.192794 -0.021311 -45.065821 -1.720125 2.506192 6.249345 -8.438727 -7.507047 -24.396107 2.959209 2.235882 3.143912 1.124299 -0.432975 48.001618 -2.213563 9.765001 -4.209795 21.470975 18.996222 17.155047 -4.519703 2.273316 
1.231360 0.716180 1.001529 -96.109866 1.276247 91.397957 2.325084 -0.773187 -7.259344 -4.620531 -7.785965 13.674246 4.391625 21.079601 -16.824672 0.000000 -0.000000 0.000000 2.217790 1.038446 -6.615054 -1.031862 8.922406 10.587625 1.085291 -15.861272 -12.574683 0.000000 -0.000000 0.000000 -0.528728 0.593245 10.161454 -0.585765 -2.921875 2.267746 -0.971470 -0.048985 2.999376 6.070796 3.985509 -10.363736 3.119955 0.634870 -7.030465 -3.434501 6.078264 -0.466239 -42.296973 -0.623413 1.382378 5.985465 -8.846299 -8.869807 -24.921031 3.453080 2.157703 3.225149 0.943280 -0.110222 45.814300 -2.551982 9.212672 -3.903894 21.223487 19.273812 17.292667 -4.812009 2.279584 
1.237794 0.717478 0.996543 -96.804739 1.496164 92.021412 3.281322 -0.416789 -10.776331 -6.291880 -6.677676 18.281032 4.617857 21.405787 -18.940047 0.000000 -0.000000 0.000000 2.239815 1.463523 -10.290863 0.473642 9.126399 15.251364 0.799792 -16.103055 -14.664672 0.000000 -0.000000 0.000000 -0.419100 0.738307 12.973994 -1.038697 -2.475993 0.907938 -0.927271 0.068026 3.443850 6.415450 4.700173 -13.310715 3.194692 0.532702 -7.599863 -3.498839 6.711267 -0.831892 -39.496246 0.573898 0.545774 5.866868 -9.135083 -9.624680 -24.658306 3.486427 2.129982 3.305266 0.586354 0.453743 43.742631 -3.669672 8.018226 -3.273711 22.132520 19.727058 16.586083 -4.863225 1.842382 
1.244239 0.718439 0.988382 -97.075713 1.698442 92.742636 4.324724 0.218019 -15.012209 -8.331429 -5.818539 23.958386 4.555565 21.740273 -21.434015 0.000000 -0.000000 0.000000 2.154145 1.659488 -14.459486 2.103510 8.668335 20.712448 0.124765 -16.274569 -16.819725 0.000000 -0.000000 0.000000 -0.353405 0.612703 15.886750 -1.448587 -2.086468 -0.207142 -0.821057 0.012319 3.578885 6.506528 5.219541 -15.503245 3.152132 0.745047 -9.115782 -3.613111 7.092807 -0.831856 -36.880743 2.171809 -0.418159 5.723753 -9.419636 -10.027948 -24.890266 3.525278 2.145420 2.900023 0.189720 0.893554 42.229991 -4.896807 6.861711 -2.163057 22.436939 21.234882 16.654730 -5.172246 1.626235 
1.251683 0.719432 0.975657 -96.904002 2.007950 93.569178 5.566757 1.031307 -20.055066 -10.305715 -4.279358 30.418977 4.470978 21.523548 -23.872677 0.000000 -0.000000 0.000000 2.068876 1.825712 -19.104979 3.624961 7.410308 26.779052 -0.443806 -16.317841 -19.545570 0.000000 -0.000000 0.000000 -0.283787 0.399565 19.440854 -1.778938 -1.874373 -1.780107 -0.571875 -0.106669 3.700645 6.479702 5.982638 -17.979475 3.195275 0.643849 -10.731508 -3.995610 7.381007 -0.636184 -34.707120 3.584480 -1.453341 5.906269 -9.603966 -10.563447 -24.031869 3.545899 3.472195 3.204708 0.112634 1.859722 40.819241 -6.271492 5.332775 -1.901201 22.254321 21.639099 15.896093 -5.306299 1.865112 
1.260254 0.720098 0.957337 -96.291537 2.409534 94.800132 6.738995 1.764652 -26.108477 -11.556704 -2.146970 37.469570 4.708452 21.179363 -26.347340 0.000000 -0.000000 0.000000 1.971308 2.089086 -24.770777 4.965997 5.499646 33.609863 -1.296477 -16.825710 -22.008876 0.000000 -0.000000 0.000000 -0.136629 0.120313 23.261582 -1.895658 -1.608564 -3.525355 -0.285915 -0.273377 3.586772 5.932625 6.810398 -21.207798 3.247105 0.247976 -12.429819 -4.256321 8.183166 -0.423454 -33.748702 4.350044 -2.148055 6.095069 -10.213326 -10.495975 -20.937323 2.809079 5.157557 3.608499 -0.693300 3.174448 40.078282 -7.171689 3.471170 -1.634098 20.837888 21.674630 12.735520 -4.205683 2.180960 
1.268755 0.721001 0.934173 -95.522459 2.816780 96.396056 7.819186 2.264463 -32.880855 -12.674128 -0.478744 44.666188 4.714575 20.827807 -28.350405 0.000000 -0.000000 0.000000 1.433602 2.397861 -31.054073 6.072276 2.889622 40.614875 -1.840266 -17.223089 -24.483099 0.000000 -0.000000 0.000000 0.109544 -0.050632 27.317899 -2.043589 -1.230862 -6.609828 0.084104 -0.615296 4.364917 4.345322 6.903799 -23.233582 4.014006 0.198864 -16.454041 -5.686396 8.715936 -0.351593 -32.973943 5.224621 -3.009523 6.284003 -11.094204 -11.371635 -15.981187 1.112587 6.870570 4.953357 -1.719610 4.014916 39.641578 -8.580619 0.643228 -1.371562 20.034426 21.903591 7.730341 -2.735139 4.090649 
